# xmcd
#
# Track frame offsets: 
#        150
#        2327
#        23538
#        36999
#        55876
#        77356
#        94730
#        113793
#        132847
#        148165
#
# Disc length: 2182 seconds
#
# Revision: 0
# Processed by: cddbd v1.5.2PL0 Copyright (c) Steve Scherf et al.
# Submitted via: ExactAudioCopyFreeDBPlugin 1.0
#
DISCID=7208840a
DTITLE=3T - Chapter III
DYEAR=2015
DGENRE=R&B
TTITLE0=That's Our Family (Intro)
TTITLE1=The Power of Love
TTITLE2=Gotta Have You
TTITLE3=Heaven
TTITLE4=Fire
TTITLE5=Missing You
TTITLE6=Sugar
TTITLE7=I Do
TTITLE8=Forever Girl
TTITLE9=The Story of Love
EXTD=
EXTT0=
EXTT1=
EXTT2=
EXTT3=
EXTT4=
EXTT5=
EXTT6=
EXTT7=
EXTT8=
EXTT9=
PLAYORDER=
